<mxfile host="app.diagrams.net" modified="2025-04-01T22:06:59.854Z" agent="Mozilla/5.0 (Windows NT 10.0; Win64; x64) AppleWebKit/537.36 (KHTML, like Gecko) Chrome/134.0.0.0 Safari/537.36" etag="UZVdCiaRv5fy7sxVugr8" version="24.4.0" type="github">
  <diagram name="Página-1" id="1_JLeJATL9djrdOSKvPB">
    <mxGraphModel dx="874" dy="460" grid="1" gridSize="10" guides="1" tooltips="1" connect="1" arrows="1" fold="1" page="1" pageScale="1" pageWidth="827" pageHeight="1169" math="0" shadow="0">
      <root>
        <mxCell id="0" />
        <mxCell id="1" parent="0" />
        <mxCell id="IKU0jFDRNHPL7oHTqz5u-23" style="edgeStyle=orthogonalEdgeStyle;rounded=0;orthogonalLoop=1;jettySize=auto;html=1;" edge="1" parent="1" source="IKU0jFDRNHPL7oHTqz5u-2" target="IKU0jFDRNHPL7oHTqz5u-16">
          <mxGeometry relative="1" as="geometry" />
        </mxCell>
        <mxCell id="IKU0jFDRNHPL7oHTqz5u-2" value="INÍCIO" style="ellipse;whiteSpace=wrap;html=1;aspect=fixed;" vertex="1" parent="1">
          <mxGeometry x="200" y="340" width="60" height="60" as="geometry" />
        </mxCell>
        <mxCell id="IKU0jFDRNHPL7oHTqz5u-3" value="investimento 1, investimento 2, investimento 3" style="rounded=0;whiteSpace=wrap;html=1;" vertex="1" parent="1">
          <mxGeometry x="320" y="150" width="430" height="40" as="geometry" />
        </mxCell>
        <object label="&lt;h1 style=&quot;margin-top: 0px;&quot;&gt;O Desafio:&lt;/h1&gt;&lt;p&gt;Desejamos ir para as Maldivas! Para isso, temos 3 investimentos, se juntos forem igual maior a 20mil vamos para as Maldivas. Se não, vamos para o Nordeste.&lt;/p&gt;" id="IKU0jFDRNHPL7oHTqz5u-5">
          <mxCell style="text;html=1;whiteSpace=wrap;overflow=hidden;rounded=0;" vertex="1" parent="1">
            <mxGeometry x="320" y="50" width="456" height="100" as="geometry" />
          </mxCell>
        </object>
        <mxCell id="IKU0jFDRNHPL7oHTqz5u-6" value="valor total = investimento 1 + investimento 2 + investimento 3" style="rounded=0;whiteSpace=wrap;html=1;" vertex="1" parent="1">
          <mxGeometry x="320" y="210" width="430" height="40" as="geometry" />
        </mxCell>
        <mxCell id="IKU0jFDRNHPL7oHTqz5u-7" value="valor total &amp;gt;=20mil (SIM)" style="rounded=0;whiteSpace=wrap;html=1;" vertex="1" parent="1">
          <mxGeometry x="320" y="260" width="190" height="40" as="geometry" />
        </mxCell>
        <mxCell id="IKU0jFDRNHPL7oHTqz5u-8" value="valor total &amp;gt;=20mil (NÃO)" style="rounded=0;whiteSpace=wrap;html=1;" vertex="1" parent="1">
          <mxGeometry x="560" y="260" width="190" height="40" as="geometry" />
        </mxCell>
        <mxCell id="IKU0jFDRNHPL7oHTqz5u-10" value="INICIO/FIM" style="ellipse;whiteSpace=wrap;html=1;aspect=fixed;" vertex="1" parent="1">
          <mxGeometry x="20" y="80" width="80" height="80" as="geometry" />
        </mxCell>
        <mxCell id="IKU0jFDRNHPL7oHTqz5u-12" value="RECEBE DADOS" style="shape=parallelogram;perimeter=parallelogramPerimeter;whiteSpace=wrap;html=1;fixedSize=1;" vertex="1" parent="1">
          <mxGeometry x="120" y="80" width="120" height="60" as="geometry" />
        </mxCell>
        <mxCell id="IKU0jFDRNHPL7oHTqz5u-13" value="PROCESSAMENTO" style="rounded=0;whiteSpace=wrap;html=1;" vertex="1" parent="1">
          <mxGeometry x="10" y="170" width="120" height="40" as="geometry" />
        </mxCell>
        <mxCell id="IKU0jFDRNHPL7oHTqz5u-14" value="DECISÃO" style="rhombus;whiteSpace=wrap;html=1;" vertex="1" parent="1">
          <mxGeometry x="70" y="220" width="150" height="80" as="geometry" />
        </mxCell>
        <mxCell id="IKU0jFDRNHPL7oHTqz5u-15" value="SAÍDA DE DADOS" style="shape=document;whiteSpace=wrap;html=1;boundedLbl=1;" vertex="1" parent="1">
          <mxGeometry x="160" y="150" width="110" height="70" as="geometry" />
        </mxCell>
        <mxCell id="IKU0jFDRNHPL7oHTqz5u-24" style="edgeStyle=orthogonalEdgeStyle;rounded=0;orthogonalLoop=1;jettySize=auto;html=1;exitX=0.5;exitY=1;exitDx=0;exitDy=0;entryX=0.5;entryY=0;entryDx=0;entryDy=0;" edge="1" parent="1" source="IKU0jFDRNHPL7oHTqz5u-16" target="IKU0jFDRNHPL7oHTqz5u-17">
          <mxGeometry relative="1" as="geometry" />
        </mxCell>
        <mxCell id="IKU0jFDRNHPL7oHTqz5u-16" value="investimento 1, investimento 2, investimento 3" style="shape=parallelogram;perimeter=parallelogramPerimeter;whiteSpace=wrap;html=1;fixedSize=1;" vertex="1" parent="1">
          <mxGeometry x="120" y="420" width="220" height="40" as="geometry" />
        </mxCell>
        <mxCell id="IKU0jFDRNHPL7oHTqz5u-25" style="edgeStyle=orthogonalEdgeStyle;rounded=0;orthogonalLoop=1;jettySize=auto;html=1;exitX=0.5;exitY=1;exitDx=0;exitDy=0;entryX=0.5;entryY=0;entryDx=0;entryDy=0;" edge="1" parent="1" source="IKU0jFDRNHPL7oHTqz5u-17" target="IKU0jFDRNHPL7oHTqz5u-19">
          <mxGeometry relative="1" as="geometry" />
        </mxCell>
        <mxCell id="IKU0jFDRNHPL7oHTqz5u-17" value="valor total = investimento 1 + investimento 2 + investimento 3" style="rounded=0;whiteSpace=wrap;html=1;" vertex="1" parent="1">
          <mxGeometry x="120" y="480" width="220" height="40" as="geometry" />
        </mxCell>
        <mxCell id="IKU0jFDRNHPL7oHTqz5u-26" style="edgeStyle=orthogonalEdgeStyle;rounded=0;orthogonalLoop=1;jettySize=auto;html=1;exitX=1;exitY=0.5;exitDx=0;exitDy=0;entryX=0.5;entryY=0;entryDx=0;entryDy=0;" edge="1" parent="1" source="IKU0jFDRNHPL7oHTqz5u-19" target="IKU0jFDRNHPL7oHTqz5u-21">
          <mxGeometry relative="1" as="geometry">
            <mxPoint x="370" y="620" as="targetPoint" />
            <Array as="points">
              <mxPoint x="360" y="600" />
              <mxPoint x="360" y="634" />
              <mxPoint x="359" y="634" />
            </Array>
          </mxGeometry>
        </mxCell>
        <mxCell id="IKU0jFDRNHPL7oHTqz5u-28" value="NÃO" style="edgeLabel;html=1;align=center;verticalAlign=middle;resizable=0;points=[];" vertex="1" connectable="0" parent="IKU0jFDRNHPL7oHTqz5u-26">
          <mxGeometry x="-0.4973" y="-1" relative="1" as="geometry">
            <mxPoint as="offset" />
          </mxGeometry>
        </mxCell>
        <mxCell id="IKU0jFDRNHPL7oHTqz5u-27" style="edgeStyle=orthogonalEdgeStyle;rounded=0;orthogonalLoop=1;jettySize=auto;html=1;exitX=0;exitY=0.5;exitDx=0;exitDy=0;" edge="1" parent="1" source="IKU0jFDRNHPL7oHTqz5u-19" target="IKU0jFDRNHPL7oHTqz5u-20">
          <mxGeometry relative="1" as="geometry">
            <Array as="points">
              <mxPoint x="100" y="600" />
            </Array>
          </mxGeometry>
        </mxCell>
        <mxCell id="IKU0jFDRNHPL7oHTqz5u-29" value="SIM" style="edgeLabel;html=1;align=center;verticalAlign=middle;resizable=0;points=[];" vertex="1" connectable="0" parent="IKU0jFDRNHPL7oHTqz5u-27">
          <mxGeometry x="-0.6" y="1" relative="1" as="geometry">
            <mxPoint x="-9" y="-1" as="offset" />
          </mxGeometry>
        </mxCell>
        <mxCell id="IKU0jFDRNHPL7oHTqz5u-19" value="VALOR TOTAL &amp;gt;= 20mil" style="rhombus;whiteSpace=wrap;html=1;" vertex="1" parent="1">
          <mxGeometry x="147.5" y="560" width="165" height="80" as="geometry" />
        </mxCell>
        <mxCell id="IKU0jFDRNHPL7oHTqz5u-31" style="edgeStyle=orthogonalEdgeStyle;rounded=0;orthogonalLoop=1;jettySize=auto;html=1;entryX=0;entryY=0.5;entryDx=0;entryDy=0;exitX=0.473;exitY=0.886;exitDx=0;exitDy=0;exitPerimeter=0;" edge="1" parent="1" source="IKU0jFDRNHPL7oHTqz5u-20" target="IKU0jFDRNHPL7oHTqz5u-22">
          <mxGeometry relative="1" as="geometry">
            <mxPoint x="190" y="770" as="targetPoint" />
            <Array as="points">
              <mxPoint x="105" y="702" />
              <mxPoint x="105" y="770" />
            </Array>
          </mxGeometry>
        </mxCell>
        <mxCell id="IKU0jFDRNHPL7oHTqz5u-20" value="VAMOS PARA MALDIVAS" style="shape=document;whiteSpace=wrap;html=1;boundedLbl=1;gradientColor=default;fillColor=none;" vertex="1" parent="1">
          <mxGeometry x="50" y="640" width="110" height="70" as="geometry" />
        </mxCell>
        <mxCell id="IKU0jFDRNHPL7oHTqz5u-30" style="edgeStyle=orthogonalEdgeStyle;rounded=0;orthogonalLoop=1;jettySize=auto;html=1;entryX=1;entryY=0.5;entryDx=0;entryDy=0;exitX=0.427;exitY=0.9;exitDx=0;exitDy=0;exitPerimeter=0;" edge="1" parent="1" source="IKU0jFDRNHPL7oHTqz5u-21" target="IKU0jFDRNHPL7oHTqz5u-22">
          <mxGeometry relative="1" as="geometry">
            <Array as="points">
              <mxPoint x="350" y="770" />
            </Array>
          </mxGeometry>
        </mxCell>
        <mxCell id="IKU0jFDRNHPL7oHTqz5u-21" value="VAMOS PARA O NORDESTE" style="shape=document;whiteSpace=wrap;html=1;boundedLbl=1;" vertex="1" parent="1">
          <mxGeometry x="304" y="640" width="110" height="70" as="geometry" />
        </mxCell>
        <mxCell id="IKU0jFDRNHPL7oHTqz5u-22" value="FIM" style="ellipse;whiteSpace=wrap;html=1;aspect=fixed;" vertex="1" parent="1">
          <mxGeometry x="200" y="740" width="60" height="60" as="geometry" />
        </mxCell>
      </root>
    </mxGraphModel>
  </diagram>
</mxfile>
